<?xml version="1.0" encoding="UTF-8" standalone="no"?>
<!DOCTYPE svg PUBLIC "-//W3C//DTD SVG 1.1//EN"
 "http://www.w3.org/Graphics/SVG/1.1/DTD/svg11.dtd">
<!-- Generated by graphviz version 2.43.0 (0)
 -->
<!-- Title: create_and_control Pages: 1 -->
<svg width="1111pt" height="648pt"
 viewBox="0.00 0.00 1111.49 648.00" xmlns="http://www.w3.org/2000/svg" xmlns:xlink="http://www.w3.org/1999/xlink">
<g id="graph0" class="graph" transform="scale(0.9 0.9) rotate(0) translate(28.8 687.8)">
<title>create_and_control</title>
<polygon fill="white" stroke="transparent" points="-28.8,28.8 -28.8,-687.8 1200.36,-687.8 1200.36,28.8 -28.8,28.8"/>
<g id="clust1" class="cluster">
<title>cluster_client</title>
<polygon fill="none" stroke="gray" stroke-dasharray="5,2" points="553.6,-8 553.6,-261 848.79,-261 848.79,-8 553.6,-8"/>
<text text-anchor="middle" x="701.2" y="-245.8" font-family="Times,serif" font-size="14.00">Client/SDK</text>
</g>
<g id="clust2" class="cluster">
<title>cluster_axme</title>
<polygon fill="none" stroke="steelblue" stroke-dasharray="5,2" points="8.17,-269 8.17,-514 1153.17,-514 1153.17,-269 8.17,-269"/>
<text text-anchor="middle" x="580.67" y="-498.8" font-family="Times,serif" font-size="14.00">AXME Cloud</text>
</g>
<g id="clust3" class="cluster">
<title>cluster_recipient</title>
<polygon fill="none" stroke="gray" stroke-dasharray="5,2" points="943.78,-522 943.78,-651 1163.38,-651 1163.38,-522 943.78,-522"/>
<text text-anchor="middle" x="1053.58" y="-635.8" font-family="Times,serif" font-size="14.00">Recipient Agent</text>
</g>
<!-- C1 -->
<g id="node1" class="node">
<title>C1</title>
<polygon fill="none" stroke="black" points="763.88,-230 638.88,-230 638.88,-194 763.88,-194 763.88,-230"/>
<text text-anchor="middle" x="701.38" y="-215.2" font-family="monospace" font-size="11.00">Client/SDK</text>
<text text-anchor="middle" x="701.38" y="-203.2" font-family="monospace" font-size="11.00">POST /v1/intents</text>
</g>
<!-- G1 -->
<g id="node2" class="node">
<title>G1</title>
<polygon fill="none" stroke="black" points="817.88,-313 584.88,-313 584.88,-277 817.88,-277 817.88,-313"/>
<text text-anchor="middle" x="701.38" y="-298.2" font-family="monospace" font-size="11.00">Gateway</text>
<text text-anchor="middle" x="701.38" y="-286.2" font-family="monospace" font-size="11.00">validate auth+schema+idempotency</text>
</g>
<!-- C1&#45;&gt;G1 -->
<g id="edge1" class="edge">
<title>C1&#45;&gt;G1</title>
<path fill="none" stroke="black" d="M701.38,-230.16C701.38,-242.29 701.38,-254.43 701.38,-266.57"/>
<polygon fill="black" stroke="black" points="697.88,-266.76 701.38,-276.76 704.88,-266.76 697.88,-266.76"/>
</g>
<!-- R1 -->
<g id="node3" class="node">
<title>R1</title>
<polygon fill="none" stroke="black" points="1125.88,-388 980.88,-388 980.88,-344 1125.88,-344 1125.88,-388"/>
<text text-anchor="middle" x="1053.38" y="-375.2" font-family="monospace" font-size="11.00">Runtime+Store</text>
<text text-anchor="middle" x="1053.38" y="-363.2" font-family="monospace" font-size="11.00">persist intent</text>
<text text-anchor="middle" x="1053.38" y="-351.2" font-family="monospace" font-size="11.00">policy_generation=0</text>
</g>
<!-- G1&#45;&gt;R1 -->
<g id="edge2" class="edge">
<title>G1&#45;&gt;R1</title>
<path fill="none" stroke="black" d="M800.09,-313.06C815.43,-315.99 831.1,-319.03 845.88,-322 887.12,-330.27 932.88,-339.97 970.82,-348.15"/>
<polygon fill="black" stroke="black" points="970.28,-351.61 980.8,-350.31 971.76,-344.77 970.28,-351.61"/>
</g>
<!-- B1 -->
<g id="node4" class="node">
<title>B1</title>
<polygon fill="none" stroke="black" points="1125.88,-566 980.88,-566 980.88,-530 1125.88,-530 1125.88,-566"/>
<text text-anchor="middle" x="1053.38" y="-551.2" font-family="monospace" font-size="11.00">Recipient Agent</text>
<text text-anchor="middle" x="1053.38" y="-539.2" font-family="monospace" font-size="11.00">routed via registry</text>
</g>
<!-- G1&#45;&gt;B1 -->
<g id="edge3" class="edge">
<title>G1&#45;&gt;B1</title>
<path fill="none" stroke="black" d="M818.21,-302.86C828.56,-307.47 838.07,-313.69 845.88,-322 879.96,-358.21 837.88,-388.41 859.88,-433 883.66,-481.19 899.44,-490.97 945.88,-518 953.75,-522.58 962.35,-526.49 971.14,-529.82"/>
<polygon fill="black" stroke="black" points="970.14,-533.18 980.74,-533.22 972.48,-526.58 970.14,-533.18"/>
</g>
<!-- G2 -->
<g id="node5" class="node">
<title>G2</title>
<polygon fill="lightgreen" stroke="black" points="1142.88,-313 963.88,-313 963.88,-277 1142.88,-277 1142.88,-313"/>
<text text-anchor="middle" x="1053.38" y="-298.2" font-family="monospace" font-size="11.00">Gateway</text>
<text text-anchor="middle" x="1053.38" y="-286.2" font-family="monospace" font-size="11.00">201 accepted + intent_id</text>
</g>
<!-- G1&#45;&gt;G2 -->
<g id="edge4" class="edge">
<title>G1&#45;&gt;G2</title>
<path fill="none" stroke="black" stroke-dasharray="5,2" d="M817.96,-295C861.92,-295 911.56,-295 953.81,-295"/>
<polygon fill="black" stroke="black" points="953.82,-298.5 963.82,-295 953.82,-291.5 953.82,-298.5"/>
<text text-anchor="middle" x="896.38" y="-298" font-family="monospace" font-size="10.00">return</text>
</g>
<!-- G2&#45;&gt;C1 -->
<g id="edge5" class="edge">
<title>G2&#45;&gt;C1</title>
<path fill="none" stroke="black" stroke-dasharray="5,2" d="M976.29,-276.95C916.23,-262.71 833.02,-242.98 774.12,-229.01"/>
<polygon fill="black" stroke="black" points="774.69,-225.55 764.15,-226.65 773.07,-232.36 774.69,-225.55"/>
<text text-anchor="middle" x="896.38" y="-268" font-family="monospace" font-size="10.00">return</text>
</g>
<!-- C2 -->
<g id="node6" class="node">
<title>C2</title>
<polygon fill="none" stroke="black" points="837.88,-114 564.88,-114 564.88,-70 837.88,-70 837.88,-114"/>
<text text-anchor="middle" x="701.38" y="-101.2" font-family="monospace" font-size="11.00">Client/SDK</text>
<text text-anchor="middle" x="701.38" y="-89.2" font-family="monospace" font-size="11.00">POST /intents/{id}/controls or /policy</text>
<text text-anchor="middle" x="701.38" y="-77.2" font-family="monospace" font-size="11.00">(expected_policy_generation=n)</text>
</g>
<!-- G3 -->
<g id="node7" class="node">
<title>G3</title>
<polygon fill="none" stroke="black" points="163.38,-367 25.38,-367 25.38,-331 163.38,-331 163.38,-367"/>
<text text-anchor="middle" x="94.38" y="-352.2" font-family="monospace" font-size="11.00">Gateway</text>
<text text-anchor="middle" x="94.38" y="-340.2" font-family="monospace" font-size="11.00">compare generation</text>
</g>
<!-- C2&#45;&gt;G3 -->
<g id="edge6" class="edge">
<title>C2&#45;&gt;G3</title>
<path fill="none" stroke="black" d="M592.38,-114.04C451.21,-143.8 218.55,-196.5 190.88,-226 161.04,-257.82 199.08,-289.14 170.38,-322 169.75,-322.73 169.09,-323.44 168.41,-324.13"/>
<polygon fill="black" stroke="black" points="165.86,-321.7 160.47,-330.82 170.37,-327.05 165.86,-321.7"/>
</g>
<!-- R2 -->
<g id="node8" class="node">
<title>R2</title>
<polygon fill="none" stroke="black" points="461.88,-429 350.88,-429 350.88,-385 461.88,-385 461.88,-429"/>
<text text-anchor="middle" x="406.38" y="-416.2" font-family="monospace" font-size="11.00">Store</text>
<text text-anchor="middle" x="406.38" y="-404.2" font-family="monospace" font-size="11.00">atomic update</text>
<text text-anchor="middle" x="406.38" y="-392.2" font-family="monospace" font-size="11.00">generation=n+1</text>
</g>
<!-- G3&#45;&gt;R2 -->
<g id="edge7" class="edge">
<title>G3&#45;&gt;R2</title>
<path fill="none" stroke="black" d="M163.42,-361.73C216.05,-371.58 288.46,-385.12 340.33,-394.83"/>
<polygon fill="black" stroke="black" points="339.95,-398.32 350.42,-396.72 341.23,-391.44 339.95,-398.32"/>
<text text-anchor="middle" x="248.38" y="-391" font-family="monospace" font-size="10.00">generation matches</text>
</g>
<!-- G5 -->
<g id="node10" class="node">
<title>G5</title>
<polygon fill="lightyellow" stroke="black" points="455.38,-367 357.38,-367 357.38,-331 455.38,-331 455.38,-367"/>
<text text-anchor="middle" x="406.38" y="-352.2" font-family="monospace" font-size="11.00">Gateway</text>
<text text-anchor="middle" x="406.38" y="-340.2" font-family="monospace" font-size="11.00">409 conflict</text>
</g>
<!-- G3&#45;&gt;G5 -->
<g id="edge10" class="edge">
<title>G3&#45;&gt;G5</title>
<path fill="none" stroke="black" d="M163.42,-349C218.39,-349 294.94,-349 347.12,-349"/>
<polygon fill="black" stroke="black" points="347.22,-352.5 357.22,-349 347.22,-345.5 347.22,-352.5"/>
<text text-anchor="middle" x="248.38" y="-352" font-family="monospace" font-size="10.00">generation mismatch</text>
</g>
<!-- G4 -->
<g id="node9" class="node">
<title>G4</title>
<polygon fill="lightgreen" stroke="black" points="783.88,-367 618.88,-367 618.88,-331 783.88,-331 783.88,-367"/>
<text text-anchor="middle" x="701.38" y="-352.2" font-family="monospace" font-size="11.00">Gateway</text>
<text text-anchor="middle" x="701.38" y="-340.2" font-family="monospace" font-size="11.00">200 updated generation</text>
</g>
<!-- R2&#45;&gt;G4 -->
<g id="edge8" class="edge">
<title>R2&#45;&gt;G4</title>
<path fill="none" stroke="black" stroke-dasharray="5,2" d="M462.15,-396.16C503.37,-388 560.8,-376.63 608.95,-367.1"/>
<polygon fill="black" stroke="black" points="609.63,-370.53 618.76,-365.16 608.27,-363.67 609.63,-370.53"/>
<text text-anchor="middle" x="524.38" y="-389" font-family="monospace" font-size="10.00">return</text>
</g>
<!-- G4&#45;&gt;C2 -->
<g id="edge9" class="edge">
<title>G4&#45;&gt;C2</title>
<path fill="none" stroke="black" stroke-dasharray="5,2" d="M618.69,-349.39C596.25,-345.59 573.57,-337.6 556.88,-322 528.22,-295.2 539.81,-275.43 534.88,-236.5 528.43,-185.52 520.55,-159.33 556.88,-123 557.7,-122.18 558.53,-121.39 559.38,-120.61"/>
<polygon fill="black" stroke="black" points="561.84,-123.12 567.4,-114.09 557.43,-117.69 561.84,-123.12"/>
<text text-anchor="middle" x="524.38" y="-228.5" font-family="monospace" font-size="10.00">return</text>
</g>
<!-- C3 -->
<g id="node11" class="node">
<title>C3</title>
<polygon fill="none" stroke="black" points="787.38,-176 615.38,-176 615.38,-132 787.38,-132 787.38,-176"/>
<text text-anchor="middle" x="701.38" y="-163.2" font-family="monospace" font-size="11.00">Client/SDK</text>
<text text-anchor="middle" x="701.38" y="-151.2" font-family="monospace" font-size="11.00">GET /intents/{id}</text>
<text text-anchor="middle" x="701.38" y="-139.2" font-family="monospace" font-size="11.00">fetch latest generation</text>
</g>
<!-- G5&#45;&gt;C3 -->
<g id="edge11" class="edge">
<title>G5&#45;&gt;C3</title>
<path fill="none" stroke="black" stroke-dasharray="5,2" d="M455.51,-337.57C465.98,-333.7 476.56,-328.62 485.38,-322 520.71,-295.52 524.43,-281.11 542.88,-241 553.61,-217.69 538.45,-202.85 556.88,-185 570.09,-172.21 587.25,-164.17 605.09,-159.21"/>
<polygon fill="black" stroke="black" points="606.17,-162.55 615.05,-156.76 604.5,-155.75 606.17,-162.55"/>
<text text-anchor="middle" x="524.38" y="-307" font-family="monospace" font-size="10.00">return</text>
</g>
<!-- C3&#45;&gt;G3 -->
<g id="edge12" class="edge">
<title>C3&#45;&gt;G3</title>
<path fill="none" stroke="black" d="M615.17,-171.39C595.94,-175.6 575.67,-180.26 556.88,-185 392.69,-226.46 327.3,-190.65 190.88,-291 177.58,-300.79 183.37,-311.79 170.38,-322 168.79,-323.25 167.14,-324.45 165.43,-325.59"/>
<polygon fill="black" stroke="black" points="163.35,-322.76 156.55,-330.88 166.93,-328.77 163.35,-322.76"/>
<text text-anchor="middle" x="406.38" y="-226" font-family="monospace" font-size="10.00">retry with new generation</text>
</g>
<!-- B2 -->
<g id="node12" class="node">
<title>B2</title>
<polygon fill="none" stroke="black" points="1152.88,-620 953.88,-620 953.88,-584 1152.88,-584 1152.88,-620"/>
<text text-anchor="middle" x="1053.38" y="-605.2" font-family="monospace" font-size="11.00">Recipient Agent</text>
<text text-anchor="middle" x="1053.38" y="-593.2" font-family="monospace" font-size="11.00">progress/waiting/completion</text>
</g>
<!-- G6 -->
<g id="node13" class="node">
<title>G6</title>
<polygon fill="none" stroke="black" points="753.38,-483 649.38,-483 649.38,-447 753.38,-447 753.38,-483"/>
<text text-anchor="middle" x="701.38" y="-468.2" font-family="monospace" font-size="11.00">Gateway</text>
<text text-anchor="middle" x="701.38" y="-456.2" font-family="monospace" font-size="11.00">status update</text>
</g>
<!-- B2&#45;&gt;G6 -->
<g id="edge13" class="edge">
<title>B2&#45;&gt;G6</title>
<path fill="none" stroke="black" d="M974.55,-583.96C964.82,-581.21 955.07,-578.21 945.88,-575 874.04,-549.89 794.27,-511.78 746.25,-487.65"/>
<polygon fill="black" stroke="black" points="747.58,-484.41 737.08,-483.02 744.42,-490.66 747.58,-484.41"/>
<text text-anchor="middle" x="896.38" y="-573" font-family="monospace" font-size="10.00">update state</text>
</g>
<!-- G6&#45;&gt;R1 -->
<g id="edge14" class="edge">
<title>G6&#45;&gt;R1</title>
<path fill="none" stroke="black" d="M753.65,-450.5C810.75,-434.35 903.83,-408.02 970.92,-389.04"/>
<polygon fill="black" stroke="black" points="971.96,-392.39 980.63,-386.3 970.05,-385.65 971.96,-392.39"/>
<text text-anchor="middle" x="896.38" y="-421" font-family="monospace" font-size="10.00">update state</text>
</g>
<!-- C4 -->
<g id="node14" class="node">
<title>C4</title>
<polygon fill="none" stroke="black" points="793.88,-52 608.88,-52 608.88,-16 793.88,-16 793.88,-52"/>
<text text-anchor="middle" x="701.38" y="-37.2" font-family="monospace" font-size="11.00">Client/SDK</text>
<text text-anchor="middle" x="701.38" y="-25.2" font-family="monospace" font-size="11.00">POST /intents/{id}/resume</text>
</g>
<!-- R3 -->
<g id="node15" class="node">
<title>R3</title>
<polygon fill="none" stroke="black" points="170.38,-313 18.38,-313 18.38,-277 170.38,-277 170.38,-313"/>
<text text-anchor="middle" x="94.38" y="-298.2" font-family="monospace" font-size="11.00">Runtime</text>
<text text-anchor="middle" x="94.38" y="-286.2" font-family="monospace" font-size="11.00">continue waiting run</text>
</g>
<!-- C4&#45;&gt;R3 -->
<g id="edge15" class="edge">
<title>C4&#45;&gt;R3</title>
<path fill="none" stroke="black" stroke-dasharray="5,2" d="M608.54,-40.39C499.37,-52.08 316.25,-85.1 190.88,-178 157.34,-202.86 128.58,-242.06 111.63,-268.14"/>
<polygon fill="black" stroke="black" points="108.55,-266.46 106.14,-276.77 114.46,-270.21 108.55,-266.46"/>
<text text-anchor="middle" x="406.38" y="-106" font-family="monospace" font-size="10.00">return</text>
</g>
<!-- G7 -->
<g id="node16" class="node">
<title>G7</title>
<polygon fill="none" stroke="black" points="461.88,-313 350.88,-313 350.88,-277 461.88,-277 461.88,-313"/>
<text text-anchor="middle" x="406.38" y="-298.2" font-family="monospace" font-size="11.00">Gateway</text>
<text text-anchor="middle" x="406.38" y="-286.2" font-family="monospace" font-size="11.00">state advanced</text>
</g>
<!-- R3&#45;&gt;G7 -->
<g id="edge16" class="edge">
<title>R3&#45;&gt;G7</title>
<path fill="none" stroke="black" stroke-dasharray="5,2" d="M170.43,-295C222.29,-295 290.59,-295 340.18,-295"/>
<polygon fill="black" stroke="black" points="340.46,-298.5 350.46,-295 340.46,-291.5 340.46,-298.5"/>
<text text-anchor="middle" x="248.38" y="-298" font-family="monospace" font-size="10.00">return</text>
</g>
<!-- G7&#45;&gt;C4 -->
<g id="edge17" class="edge">
<title>G7&#45;&gt;C4</title>
<path fill="none" stroke="black" stroke-dasharray="5,2" d="M423.42,-277C440.01,-257.91 466.13,-226.5 485.38,-197 494.71,-182.7 543.15,-71.15 556.88,-61 569.26,-51.85 583.84,-45.53 598.87,-41.2"/>
<polygon fill="black" stroke="black" points="599.99,-44.52 608.8,-38.63 598.24,-37.75 599.99,-44.52"/>
<text text-anchor="middle" x="524.38" y="-156" font-family="monospace" font-size="10.00">return</text>
</g>
<!-- S1 -->
<g id="node17" class="node">
<title>S1</title>
<polygon fill="none" stroke="black" points="163.38,-483 25.38,-483 25.38,-447 163.38,-447 163.38,-483"/>
<text text-anchor="middle" x="94.38" y="-468.2" font-family="monospace" font-size="11.00">Internal Scheduler</text>
<text text-anchor="middle" x="94.38" y="-456.2" font-family="monospace" font-size="11.00">wakeup tick</text>
</g>
<!-- R4 -->
<g id="node18" class="node">
<title>R4</title>
<polygon fill="none" stroke="black" points="485.38,-483 327.38,-483 327.38,-447 485.38,-447 485.38,-483"/>
<text text-anchor="middle" x="406.38" y="-468.2" font-family="monospace" font-size="11.00">Runtime</text>
<text text-anchor="middle" x="406.38" y="-456.2" font-family="monospace" font-size="11.00">advance via scheduler</text>
</g>
<!-- S1&#45;&gt;R4 -->
<g id="edge18" class="edge">
<title>S1&#45;&gt;R4</title>
<path fill="none" stroke="black" d="M163.42,-465C208.51,-465 268.12,-465 316.89,-465"/>
<polygon fill="black" stroke="black" points="317.13,-468.5 327.13,-465 317.13,-461.5 317.13,-468.5"/>
</g>
<!-- R4&#45;&gt;G6 -->
<g id="edge19" class="edge">
<title>R4&#45;&gt;G6</title>
<path fill="none" stroke="black" d="M485.52,-465C533.64,-465 594.46,-465 639.1,-465"/>
<polygon fill="black" stroke="black" points="639.22,-468.5 649.22,-465 639.22,-461.5 639.22,-468.5"/>
</g>
</g>
</svg>
